<?xml version="1.0" encoding="UTF-8"?>
<svg id="Layer_1" xmlns="http://www.w3.org/2000/svg" version="1.1" viewBox="0 0 165 165">
  <!-- Generator: Adobe Illustrator 30.1.0, SVG Export Plug-In . SVG Version: 2.1.1 Build 136)  -->
  <defs>
    <style>
      .st0 {
        fill-rule: evenodd;
      }

      .st0, .st1 {
        fill: #fff;
      }

      .st2 {
        fill: #009393;
      }
    </style>
  </defs>
  <rect class="st2" x="0" y="0" width="165" height="165"/>
  <path class="st1" d="M130.7,116.8l-1.2,5.3-1.5-6.4-5.3-2.2-1.4,6.4-1.3-7.5-5.3-2.2-5.5,24.3h5.8l1.7-7.5,1.3,7.5h5.8l1.4-6.4,1.5,6.4h5.8l3.5-15.7-5.3-2.2Z"/>
  <path class="st1" d="M54.6,84.7c2.7,3,13.8,5.3,27.1,5.3,13.3,0,24.4-2.3,27.1-5.3-2.3-2.6-10.6-4.6-21.2-5.1v6.4c-1.9,0-3.9.1-5.9.1s-4,0-5.9-.1v-6.4c-10.6.6-18.9,2.6-21.2,5.1Z"/>
  <path class="st0" d="M117.4,48.1l18.1,31.3h0c.9,1.6.7,3.7-.7,5l-49.9,49c-1.6,1.6-4.2,1.6-5.8,0l-49.9-49c-1.4-1.4-1.6-3.5-.6-5.1l19.4-31.4c.8-1.2,2.1-2,3.5-2h62.3c1.5,0,2.9.8,3.6,2.1ZM87.6,68.8v6.1h0c12.5.7,21.8,3.3,21.9,6.5v6.7c0,3.2-9.4,5.9-21.9,6.5v15h-11.8v-15c-12.5-.7-21.8-3.3-21.9-6.5v-6.7c0-3.2,9.4-5.9,21.9-6.5v-6.1h-17.7v-8.8h47.2v8.8h-17.7Z"/>
</svg>